<svg width="52" height="52" viewBox="0 0 52 52" fill="none" xmlns="http://www.w3.org/2000/svg">
<path d="M23.8333 11.0066V4.33331C12.9999 5.41665 4.33325 14.755 4.33325 26C4.33325 37.245 12.9999 46.5833 23.8333 47.6666V40.9933C17.3333 39.9533 10.8333 33.6266 10.8333 26C10.8333 18.3733 17.3333 12.0466 23.8333 11.0066ZM41.1016 23.8333H47.6666C46.6483 13 38.9999 5.35165 28.1666 4.33331V11.0066C34.6666 11.9383 40.1699 17.3333 41.1016 23.8333ZM28.1666 40.9933V47.6666C38.9999 46.6483 46.6483 39 47.6666 28.1666H41.1016C40.1699 34.6666 34.6666 40.0616 28.1666 40.9933Z" fill="#1CB7ED"/>
<path d="M47.6665 23.8333H41.1015C40.1698 17.3333 34.6665 11.9383 28.1665 11.0066V4.33331C38.9998 5.35165 46.6482 13 47.6665 23.8333Z" fill="#1CB7ED"/>
</svg>
