<svg width="52" height="52" viewBox="0 0 52 52" fill="none" xmlns="http://www.w3.org/2000/svg">
<path d="M26.0002 4.33331C14.0402 4.33331 4.3335 14.04 4.3335 26C4.3335 37.96 14.0402 47.6666 26.0002 47.6666C37.9602 47.6666 47.6668 37.96 47.6668 26C47.6668 14.04 37.9602 4.33331 26.0002 4.33331ZM23.8335 43.1816C15.2752 42.12 8.66683 34.84 8.66683 26C8.66683 24.6566 8.84016 23.3783 9.12183 22.1216L19.5002 32.5V34.6666C19.5002 37.05 21.4502 39 23.8335 39V43.1816ZM38.7835 37.6783C38.2202 35.9233 36.6168 34.6666 34.6668 34.6666H32.5002V28.1666C32.5002 26.975 31.5252 26 30.3335 26H17.3335V21.6666H21.6668C22.8585 21.6666 23.8335 20.6916 23.8335 19.5V15.1666H28.1668C30.5502 15.1666 32.5002 13.2166 32.5002 10.8333V9.94498C38.8485 12.5233 43.3335 18.7416 43.3335 26C43.3335 30.5066 41.6002 34.6016 38.7835 37.6783Z" fill="#1CB7ED"/>
<circle cx="26.0002" cy="26" r="19.64" stroke="#1CB7ED" stroke-width="4.4"/>
</svg>
