<svg width="52" height="52" viewBox="0 0 52 52" fill="none" xmlns="http://www.w3.org/2000/svg">
<path d="M10.8815 23.0326C9.12425 22.8143 7.50721 21.9619 6.33425 20.6353C5.1613 19.3088 4.51318 17.5996 4.51172 15.8288V9.5921H10.8815V23.0326Z" fill="#1CB7ED"/>
<path d="M31.5564 41.6251L34.7438 48H17.2563L20.4438 41.6251H31.5564Z" fill="#1CB7ED"/>
<path d="M23.3191 39.8651V36.5396H28.681V39.8651H23.3191Z" fill="#1CB7ED"/>
<path d="M47.4884 15.8288C47.487 17.5996 46.8388 19.3088 45.6659 20.6353C44.4929 21.9619 42.8759 22.8143 41.1187 23.0326V9.5921H47.4884V15.8288Z" fill="#1CB7ED"/>
<path d="M12.6414 4V23.3395C12.6454 26.3724 13.852 29.2798 15.9965 31.4244C18.1411 33.5689 21.0485 34.7755 24.0814 34.7796H27.9186C30.9514 34.7755 33.8589 33.5689 36.0034 31.4244C38.1479 29.2798 39.3545 26.3724 39.3586 23.3395V4H12.6414ZM30.093 23.36L26 21.2163L21.9069 23.36L22.7 18.8372L19.4 15.6037L23.9535 14.9386L26 10.8047L28.0465 14.9386L32.6051 15.6037L29.3 18.8372L30.093 23.36Z" fill="#1CB7ED"/>
</svg>
