<svg width="20" height="20" viewBox="0 0 20 20" fill="none" xmlns="http://www.w3.org/2000/svg">
<path d="M7.12477 10C6.23311 9.40834 5.24977 8.94167 4.18311 8.65834C5.24977 8.94167 6.23311 9.40834 7.12477 10ZM15.8164 8.65834C14.7414 8.94167 13.7414 9.41667 12.8414 10.025C13.7414 9.41667 14.7414 8.94167 15.8164 8.65834Z" fill="#607D8B"/>
<path d="M7.4915 10.2333C7.37484 10.15 7.2415 10.075 7.1165 9.99167C7.2415 10.0833 7.37484 10.15 7.4915 10.2333ZM9.99984 12.875C8.20817 10.1417 5.14984 8.33333 1.6665 8.33333C1.6665 12.7667 4.4665 16.5167 8.35817 17.9083C8.88317 18.1 9.43317 18.2417 9.99984 18.3333C10.5665 18.2333 11.1082 18.0917 11.6415 17.9083C15.5332 16.5167 18.3332 12.7667 18.3332 8.33333C14.8498 8.33333 11.7915 10.1417 9.99984 12.875Z" fill="#1CB7ED"/>
<path d="M10.0355 1.66666C11.8021 3.43333 12.7438 5.69999 12.8938 8.02499C11.8271 8.59999 10.8438 9.33333 9.98548 10.2167C9.12715 9.32499 8.14382 8.59166 7.07715 8.02499C7.26882 5.71666 8.25215 3.44999 10.0355 1.66666Z" fill="#1CB7ED"/>
</svg>
