<svg width="20" height="20" viewBox="0 0 20 20" fill="none" xmlns="http://www.w3.org/2000/svg">
<path d="M9.99984 1.66666C5.39984 1.66666 1.6665 5.39999 1.6665 9.99999C1.6665 14.6 5.39984 18.3333 9.99984 18.3333C14.5998 18.3333 18.3332 14.6 18.3332 9.99999C18.3332 5.39999 14.5998 1.66666 9.99984 1.66666ZM9.1665 16.6083C5.87484 16.2 3.33317 13.4 3.33317 9.99999C3.33317 9.48332 3.39984 8.99166 3.50817 8.50832L7.49984 12.5V13.3333C7.49984 14.25 8.24984 15 9.1665 15V16.6083ZM14.9165 14.4917C14.6998 13.8167 14.0832 13.3333 13.3332 13.3333H12.4998V10.8333C12.4998 10.375 12.1248 9.99999 11.6665 9.99999H6.6665V8.33332H8.33317C8.7915 8.33332 9.1665 7.95832 9.1665 7.49999V5.83332H10.8332C11.7498 5.83332 12.4998 5.08332 12.4998 4.16666V3.82499C14.9415 4.81666 16.6665 7.20832 16.6665 9.99999C16.6665 11.7333 15.9998 13.3083 14.9165 14.4917Z" fill="#1CB7ED"/>
<circle cx="10.0001" cy="9.99999" r="7.63846" stroke="#1CB7ED" stroke-width="1.52308"/>
</svg>
