<svg width="13" height="10" viewBox="0 0 13 10" fill="none" xmlns="http://www.w3.org/2000/svg">
<path d="M1.60977 3.19237C1.76157 3.29949 2.21915 3.61763 2.98252 4.14662C3.74593 4.67562 4.33074 5.08293 4.737 5.36859C4.78163 5.3999 4.87646 5.46796 5.02153 5.57288C5.16662 5.67786 5.28718 5.7627 5.38311 5.82741C5.4791 5.8921 5.59516 5.96466 5.73138 6.045C5.86756 6.12526 5.99593 6.18563 6.11646 6.2256C6.23702 6.26589 6.34862 6.28585 6.45128 6.28585H6.45801H6.46476C6.56742 6.28585 6.67907 6.26587 6.79962 6.2256C6.92011 6.18563 7.0486 6.12519 7.18466 6.045C7.32079 5.96457 7.43684 5.89207 7.53284 5.82741C7.62884 5.7627 7.7493 5.67786 7.89444 5.57288C8.03948 5.46787 8.13443 5.3999 8.17906 5.36859C8.58971 5.08293 9.63445 4.35746 11.313 3.19223C11.6388 2.96465 11.9111 2.69005 12.1298 2.3686C12.3487 2.04729 12.458 1.71023 12.458 1.35759C12.458 1.0629 12.3519 0.810649 12.1398 0.600847C11.9278 0.390998 11.6766 0.286133 11.3866 0.286133H1.52939C1.18566 0.286133 0.921143 0.402186 0.735875 0.634293C0.55063 0.866447 0.458008 1.15663 0.458008 1.50481C0.458008 1.78606 0.580816 2.09083 0.826316 2.41893C1.07179 2.74706 1.33303 3.0049 1.60977 3.19237Z" fill="#1CB7ED"/>
<path d="M11.7883 3.90898C10.3242 4.89996 9.2124 5.67012 8.45357 6.21929C8.19911 6.40671 7.99269 6.55302 7.83416 6.65787C7.67563 6.76278 7.4648 6.86992 7.20135 6.97924C6.93801 7.08873 6.69258 7.14331 6.46486 7.14331H6.45803H6.4513C6.22363 7.14331 5.97806 7.08873 5.71471 6.97924C5.45136 6.86992 5.24038 6.76278 5.0819 6.65787C4.92346 6.55302 4.71697 6.40671 4.46253 6.21929C3.85982 5.77736 2.75046 5.00715 1.13442 3.90898C0.879886 3.73945 0.65444 3.54513 0.458008 3.32642V8.64323C0.458008 8.93806 0.562873 9.19017 0.772722 9.4C0.982524 9.60989 1.2348 9.7148 1.52946 9.7148H11.3866C11.6812 9.7148 11.9335 9.60989 12.1433 9.4C12.3532 9.1901 12.458 8.93808 12.458 8.64323V3.32642C12.266 3.5406 12.0429 3.73493 11.7883 3.90898Z" fill="#1CB7ED"/>
</svg>
