<svg width="280" height="218" viewBox="0 0 280 218" fill="none" xmlns="http://www.w3.org/2000/svg">
<rect x="196" width="84" height="218" fill="#1CB7ED"/>
<path d="M224.193 65.824L221.809 59.552H219.729L223.249 68.016C222.929 68.736 222.593 68.976 222.049 68.976C221.649 68.976 221.265 68.848 220.913 68.656L220.257 70.096C220.849 70.416 221.457 70.608 222.257 70.608C223.617 70.608 224.369 69.968 225.041 68.24L228.401 59.552H226.385L224.193 65.824ZM233.912 68.192C236.52 68.192 238.44 66.192 238.44 63.792V63.76C238.44 61.344 236.536 59.376 233.944 59.376C231.352 59.376 229.432 61.376 229.432 63.792V63.824C229.432 66.224 231.336 68.192 233.912 68.192ZM233.944 66.496C232.44 66.496 231.368 65.264 231.368 63.792V63.76C231.368 62.288 232.36 61.072 233.912 61.072C235.432 61.072 236.504 62.304 236.504 63.792V63.824C236.504 65.28 235.512 66.496 233.944 66.496ZM243.644 68.176C244.956 68.176 245.74 67.488 246.284 66.688V68H248.236V59.552H246.284V64.32C246.284 65.632 245.5 66.4 244.38 66.4C243.228 66.4 242.572 65.664 242.572 64.352V59.552H240.636V64.928C240.636 66.896 241.74 68.176 243.644 68.176ZM250.973 68H252.909V64.784C252.909 62.544 254.094 61.44 255.789 61.44H255.901V59.392C254.413 59.328 253.437 60.192 252.909 61.456V59.552H250.973V68ZM216.041 92.56H217.977V88.688C218.569 89.472 219.449 90.176 220.857 90.176C222.857 90.176 224.777 88.592 224.777 85.792V85.76C224.777 82.944 222.841 81.376 220.857 81.376C219.481 81.376 218.601 82.08 217.977 82.96V81.552H216.041V92.56ZM220.393 88.496C219.081 88.496 217.929 87.408 217.929 85.792V85.76C217.929 84.144 219.081 83.056 220.393 83.056C221.705 83.056 222.809 84.128 222.809 85.76V85.792C222.809 87.456 221.721 88.496 220.393 88.496ZM227.095 90H229.031V86.784C229.031 84.544 230.215 83.44 231.911 83.44H232.023V81.392C230.535 81.328 229.559 82.192 229.031 83.456V81.552H227.095V90ZM237.76 90.192C240.368 90.192 242.288 88.192 242.288 85.792V85.76C242.288 83.344 240.384 81.376 237.792 81.376C235.2 81.376 233.28 83.376 233.28 85.792V85.824C233.28 88.224 235.184 90.192 237.76 90.192ZM237.792 88.496C236.288 88.496 235.216 87.264 235.216 85.792V85.76C235.216 84.288 236.208 83.072 237.76 83.072C239.28 83.072 240.352 84.304 240.352 85.792V85.824C240.352 87.28 239.36 88.496 237.792 88.496ZM245.011 90H246.947V83.216H249.155V81.616H246.915V81.152C246.915 80.272 247.299 79.872 248.035 79.872C248.451 79.872 248.787 79.952 249.171 80.08V78.448C248.739 78.32 248.275 78.224 247.603 78.224C246.771 78.224 246.147 78.448 245.699 78.896C245.251 79.344 245.011 80.048 245.011 80.976V81.6H243.939V83.216H245.011V90ZM250.707 90H252.643V81.552H250.707V90ZM250.627 80.256H252.707V78.416H250.627V80.256ZM258.325 90.144C259.061 90.144 259.589 89.984 260.069 89.712V88.128C259.685 88.32 259.301 88.416 258.869 88.416C258.213 88.416 257.829 88.112 257.829 87.36V83.216H260.101V81.552H257.829V79.232H255.893V81.552H254.821V83.216H255.893V87.664C255.893 89.52 256.901 90.144 258.325 90.144ZM223.178 112.064H224.906L226.81 106.288L228.698 112.064H230.442L233.21 103.552H231.258L229.53 109.344L227.658 103.52H225.994L224.122 109.344L222.426 103.552H220.442L223.178 112.064ZM235.28 102.256H237.36V100.416H235.28V102.256ZM235.36 112H237.296V103.552H235.36V112ZM242.978 112.144C243.714 112.144 244.242 111.984 244.722 111.712V110.128C244.338 110.32 243.954 110.416 243.522 110.416C242.866 110.416 242.482 110.112 242.482 109.36V105.216H244.754V103.552H242.482V101.232H240.546V103.552H239.474V105.216H240.546V109.664C240.546 111.52 241.554 112.144 242.978 112.144ZM247.044 112H248.98V107.232C248.98 105.92 249.764 105.136 250.884 105.136C252.036 105.136 252.692 105.888 252.692 107.2V112H254.628V106.608C254.628 104.656 253.524 103.376 251.62 103.376C250.308 103.376 249.524 104.064 248.98 104.848V100.32H247.044V112ZM215.355 134H219.531C223.051 134 225.483 131.552 225.483 128.4V128.368C225.483 125.216 223.051 122.8 219.531 122.8H215.355V134ZM219.531 124.592C221.883 124.592 223.419 126.208 223.419 128.4V128.432C223.419 130.624 221.883 132.208 219.531 132.208H217.323V124.592H219.531ZM233.502 134.192C235.486 134.192 237.07 133.392 238.174 132.448V127.744H233.406V129.456H236.27V131.552C235.582 132.064 234.622 132.4 233.566 132.4C231.278 132.4 229.758 130.704 229.758 128.4V128.368C229.758 126.224 231.326 124.416 233.39 124.416C234.814 124.416 235.662 124.88 236.526 125.616L237.774 124.128C236.622 123.152 235.422 122.608 233.47 122.608C230.094 122.608 227.694 125.264 227.694 128.4V128.432C227.694 131.696 229.998 134.192 233.502 134.192ZM243.606 134H245.59V124.624H249.142V122.8H240.054V124.624H243.606V134ZM258.765 122.8L255.965 126.864L253.181 122.8H250.861L254.749 128.304L250.701 134H252.957L255.901 129.728L258.861 134H261.181L257.117 128.272L261.021 122.8H258.765ZM203.798 156H205.734V144.32H203.798V156ZM212.456 156.192C214.008 156.192 215.112 155.568 215.912 154.608L214.776 153.6C214.104 154.256 213.432 154.608 212.488 154.608C211.24 154.608 210.264 153.84 210.056 152.464H216.264C216.28 152.272 216.296 152.096 216.296 151.92C216.296 149.488 214.936 147.376 212.248 147.376C209.832 147.376 208.12 149.36 208.12 151.776V151.808C208.12 154.416 210.008 156.192 212.456 156.192ZM210.04 151.184C210.216 149.872 211.048 148.96 212.232 148.96C213.512 148.96 214.248 149.936 214.376 151.184H210.04ZM220.826 156.064H222.57L226.026 147.552H223.994L221.706 153.76L219.434 147.552H217.354L220.826 156.064ZM231.377 156.192C232.929 156.192 234.033 155.568 234.833 154.608L233.697 153.6C233.025 154.256 232.353 154.608 231.409 154.608C230.161 154.608 229.185 153.84 228.977 152.464H235.185C235.201 152.272 235.217 152.096 235.217 151.92C235.217 149.488 233.857 147.376 231.169 147.376C228.753 147.376 227.041 149.36 227.041 151.776V151.808C227.041 154.416 228.929 156.192 231.377 156.192ZM228.961 151.184C229.137 149.872 229.969 148.96 231.153 148.96C232.433 148.96 233.169 149.936 233.297 151.184H228.961ZM237.482 156H239.418V152.784C239.418 150.544 240.602 149.44 242.298 149.44H242.41V147.392C240.922 147.328 239.946 148.192 239.418 149.456V147.552H237.482V156ZM246.437 156.176C247.733 156.176 248.613 155.632 249.189 154.944V156H251.077V150.992C251.077 149.888 250.789 148.992 250.165 148.384C249.573 147.776 248.629 147.44 247.365 147.44C246.021 147.44 245.109 147.712 244.181 148.128L244.693 149.648C245.461 149.328 246.165 149.12 247.109 149.12C248.469 149.12 249.205 149.76 249.205 150.96V151.168C248.549 150.96 247.877 150.816 246.933 150.816C244.869 150.816 243.445 151.712 243.445 153.536V153.568C243.445 155.264 244.853 156.176 246.437 156.176ZM246.981 154.768C246.053 154.768 245.333 154.304 245.333 153.488V153.456C245.333 152.576 246.069 152.048 247.317 152.048C248.085 152.048 248.741 152.192 249.237 152.384V152.96C249.237 154.032 248.261 154.768 246.981 154.768ZM257.475 158.592C258.995 158.592 260.179 158.224 260.947 157.456C261.651 156.752 262.019 155.696 262.019 154.272V147.552H260.083V148.816C259.427 148.032 258.547 147.376 257.123 147.376C255.155 147.376 253.283 148.848 253.283 151.344V151.376C253.283 153.856 255.139 155.328 257.123 155.328C258.515 155.328 259.395 154.688 260.099 153.776V154.432C260.099 156.128 259.155 157.024 257.427 157.024C256.275 157.024 255.331 156.688 254.419 156.128L253.699 157.584C254.787 158.24 256.083 158.592 257.475 158.592ZM257.635 153.68C256.307 153.68 255.235 152.736 255.235 151.36V151.328C255.235 149.936 256.291 149.008 257.635 149.008C258.979 149.008 260.115 149.952 260.115 151.328V151.36C260.115 152.736 258.979 153.68 257.635 153.68ZM268.642 156.192C270.194 156.192 271.298 155.568 272.098 154.608L270.962 153.6C270.29 154.256 269.618 154.608 268.674 154.608C267.426 154.608 266.45 153.84 266.242 152.464H272.45C272.466 152.272 272.482 152.096 272.482 151.92C272.482 149.488 271.122 147.376 268.434 147.376C266.018 147.376 264.306 149.36 264.306 151.776V151.808C264.306 154.416 266.194 156.192 268.642 156.192ZM266.226 151.184C266.402 149.872 267.234 148.96 268.418 148.96C269.698 148.96 270.434 149.936 270.562 151.184H266.226Z" fill="white"/>
<path d="M120.349 140H121.801V131.24H120.349V140ZM126.842 140.144C128.006 140.144 128.834 139.676 129.434 138.956L128.582 138.2C128.078 138.692 127.574 138.956 126.866 138.956C125.93 138.956 125.198 138.38 125.042 137.348H129.698C129.71 137.204 129.722 137.072 129.722 136.94C129.722 135.116 128.702 133.532 126.686 133.532C124.874 133.532 123.59 135.02 123.59 136.832V136.856C123.59 138.812 125.006 140.144 126.842 140.144ZM125.03 136.388C125.162 135.404 125.786 134.72 126.674 134.72C127.634 134.72 128.186 135.452 128.282 136.388H125.03ZM133.12 140.048H134.428L137.02 133.664H135.496L133.78 138.32L132.076 133.664H130.516L133.12 140.048ZM141.033 140.144C142.197 140.144 143.025 139.676 143.625 138.956L142.773 138.2C142.269 138.692 141.765 138.956 141.057 138.956C140.121 138.956 139.389 138.38 139.233 137.348H143.889C143.901 137.204 143.913 137.072 143.913 136.94C143.913 135.116 142.893 133.532 140.877 133.532C139.065 133.532 137.781 135.02 137.781 136.832V136.856C137.781 138.812 139.197 140.144 141.033 140.144ZM139.221 136.388C139.353 135.404 139.977 134.72 140.865 134.72C141.825 134.72 142.377 135.452 142.473 136.388H139.221ZM145.611 140H147.063V137.588C147.063 135.908 147.951 135.08 149.223 135.08H149.307V133.544C148.191 133.496 147.459 134.144 147.063 135.092V133.664H145.611V140ZM152.328 140.132C153.3 140.132 153.96 139.724 154.392 139.208V140H155.808V136.244C155.808 135.416 155.592 134.744 155.124 134.288C154.68 133.832 153.972 133.58 153.024 133.58C152.016 133.58 151.332 133.784 150.636 134.096L151.02 135.236C151.596 134.996 152.124 134.84 152.832 134.84C153.852 134.84 154.404 135.32 154.404 136.22V136.376C153.912 136.22 153.408 136.112 152.7 136.112C151.152 136.112 150.084 136.784 150.084 138.152V138.176C150.084 139.448 151.14 140.132 152.328 140.132ZM152.736 139.076C152.04 139.076 151.5 138.728 151.5 138.116V138.092C151.5 137.432 152.052 137.036 152.988 137.036C153.564 137.036 154.056 137.144 154.428 137.288V137.72C154.428 138.524 153.696 139.076 152.736 139.076ZM160.607 141.944C161.747 141.944 162.635 141.668 163.211 141.092C163.739 140.564 164.015 139.772 164.015 138.704V133.664H162.563V134.612C162.071 134.024 161.411 133.532 160.343 133.532C158.867 133.532 157.463 134.636 157.463 136.508V136.532C157.463 138.392 158.855 139.496 160.343 139.496C161.387 139.496 162.047 139.016 162.575 138.332V138.824C162.575 140.096 161.867 140.768 160.571 140.768C159.707 140.768 158.999 140.516 158.315 140.096L157.775 141.188C158.591 141.68 159.563 141.944 160.607 141.944ZM160.727 138.26C159.731 138.26 158.927 137.552 158.927 136.52V136.496C158.927 135.452 159.719 134.756 160.727 134.756C161.735 134.756 162.587 135.464 162.587 136.496V136.52C162.587 137.552 161.735 138.26 160.727 138.26ZM168.981 140.144C170.145 140.144 170.973 139.676 171.573 138.956L170.721 138.2C170.217 138.692 169.713 138.956 169.005 138.956C168.069 138.956 167.337 138.38 167.181 137.348H171.837C171.849 137.204 171.861 137.072 171.861 136.94C171.861 135.116 170.841 133.532 168.825 133.532C167.013 133.532 165.729 135.02 165.729 136.832V136.856C165.729 138.812 167.145 140.144 168.981 140.144ZM167.169 136.388C167.301 135.404 167.925 134.72 168.813 134.72C169.773 134.72 170.325 135.452 170.421 136.388H167.169Z" fill="#1CB7ED"/>
<path d="M99.1288 97.132C100.113 97.132 100.701 96.616 101.109 96.016V97H102.573V90.664H101.109V94.24C101.109 95.224 100.521 95.8 99.6808 95.8C98.8168 95.8 98.3248 95.248 98.3248 94.264V90.664H96.8728V94.696C96.8728 96.172 97.7008 97.132 99.1288 97.132ZM104.626 98.92H106.078V96.016C106.522 96.604 107.182 97.132 108.238 97.132C109.738 97.132 111.178 95.944 111.178 93.844V93.82C111.178 91.708 109.726 90.532 108.238 90.532C107.206 90.532 106.546 91.06 106.078 91.72V90.664H104.626V98.92ZM107.89 95.872C106.906 95.872 106.042 95.056 106.042 93.844V93.82C106.042 92.608 106.906 91.792 107.89 91.792C108.874 91.792 109.702 92.596 109.702 93.82V93.844C109.702 95.092 108.886 95.872 107.89 95.872ZM118.879 97.108C119.431 97.108 119.827 96.988 120.187 96.784V95.596C119.899 95.74 119.611 95.812 119.287 95.812C118.795 95.812 118.507 95.584 118.507 95.02V91.912H120.211V90.664H118.507V88.924H117.055V90.664H116.251V91.912H117.055V95.248C117.055 96.64 117.811 97.108 118.879 97.108ZM124.764 97.144C126.72 97.144 128.16 95.644 128.16 93.844V93.82C128.16 92.008 126.732 90.532 124.788 90.532C122.844 90.532 121.404 92.032 121.404 93.844V93.868C121.404 95.668 122.832 97.144 124.764 97.144ZM124.788 95.872C123.66 95.872 122.856 94.948 122.856 93.844V93.82C122.856 92.716 123.6 91.804 124.764 91.804C125.904 91.804 126.708 92.728 126.708 93.844V93.868C126.708 94.96 125.964 95.872 124.788 95.872Z" fill="#1CB7ED"/>
<path d="M115.292 122H119.876V105.08H116.492L111.572 106.472L112.46 110.072L115.292 109.424V122ZM130.721 122.336C135.521 122.336 138.521 118.352 138.521 113.6V113.552C138.521 108.8 135.545 104.864 130.769 104.864C125.993 104.864 122.969 108.848 122.969 113.6V113.648C122.969 118.4 125.921 122.336 130.721 122.336ZM130.769 118.208C128.897 118.208 127.649 116.288 127.649 113.6V113.552C127.649 110.864 128.873 108.992 130.721 108.992C132.569 108.992 133.841 110.936 133.841 113.6V113.648C133.841 116.312 132.641 118.208 130.769 118.208ZM148.732 122.336C153.532 122.336 156.532 118.352 156.532 113.6V113.552C156.532 108.8 153.556 104.864 148.78 104.864C144.004 104.864 140.98 108.848 140.98 113.6V113.648C140.98 118.4 143.932 122.336 148.732 122.336ZM148.78 118.208C146.908 118.208 145.66 116.288 145.66 113.6V113.552C145.66 110.864 146.884 108.992 148.732 108.992C150.58 108.992 151.852 110.936 151.852 113.6V113.648C151.852 116.312 150.652 118.208 148.78 118.208ZM158.199 122H162.999L165.039 118.664L167.055 122H171.951L167.583 115.424L171.855 109.016H167.031L165.111 112.208L163.191 109.016H158.271L162.567 115.448L158.199 122Z" fill="#1CB7ED"/>
<rect y="166" width="84" height="52" fill="#D2F1FB"/>
<path d="M27.7288 188H29.7128V183.536L34.1608 176.8H31.9048L28.7368 181.744L25.6168 176.8H23.2808L27.7288 183.584V188ZM38.2323 188.192C40.8403 188.192 42.7603 186.192 42.7603 183.792V183.76C42.7603 181.344 40.8563 179.376 38.2643 179.376C35.6723 179.376 33.7523 181.376 33.7523 183.792V183.824C33.7523 186.224 35.6563 188.192 38.2323 188.192ZM38.2643 186.496C36.7603 186.496 35.6883 185.264 35.6883 183.792V183.76C35.6883 182.288 36.6803 181.072 38.2323 181.072C39.7523 181.072 40.8243 182.304 40.8243 183.792V183.824C40.8243 185.28 39.8323 186.496 38.2643 186.496ZM47.9639 188.176C49.2759 188.176 50.0599 187.488 50.6039 186.688V188H52.5559V179.552H50.6039V184.32C50.6039 185.632 49.8199 186.4 48.6999 186.4C47.5479 186.4 46.8919 185.664 46.8919 184.352V179.552H44.9559V184.928C44.9559 186.896 46.0599 188.176 47.9639 188.176ZM55.2938 188H57.2298V184.784C57.2298 182.544 58.4138 181.44 60.1098 181.44H60.2218V179.392C58.7338 179.328 57.7578 180.192 57.2298 181.456V179.552H55.2938V188ZM20.041 212.56H21.977V208.688C22.569 209.472 23.449 210.176 24.857 210.176C26.857 210.176 28.777 208.592 28.777 205.792V205.76C28.777 202.944 26.841 201.376 24.857 201.376C23.481 201.376 22.601 202.08 21.977 202.96V201.552H20.041V212.56ZM24.393 208.496C23.081 208.496 21.929 207.408 21.929 205.792V205.76C21.929 204.144 23.081 203.056 24.393 203.056C25.705 203.056 26.809 204.128 26.809 205.76V205.792C26.809 207.456 25.721 208.496 24.393 208.496ZM31.0954 210H33.0314V206.784C33.0314 204.544 34.2154 203.44 35.9114 203.44H36.0234V201.392C34.5354 201.328 33.5594 202.192 33.0314 203.456V201.552H31.0954V210ZM41.7595 210.192C44.3675 210.192 46.2875 208.192 46.2875 205.792V205.76C46.2875 203.344 44.3835 201.376 41.7915 201.376C39.1995 201.376 37.2795 203.376 37.2795 205.792V205.824C37.2795 208.224 39.1835 210.192 41.7595 210.192ZM41.7915 208.496C40.2875 208.496 39.2155 207.264 39.2155 205.792V205.76C39.2155 204.288 40.2075 203.072 41.7595 203.072C43.2795 203.072 44.3515 204.304 44.3515 205.792V205.824C44.3515 207.28 43.3595 208.496 41.7915 208.496ZM49.0111 210H50.9471V203.216H53.1551V201.616H50.9151V201.152C50.9151 200.272 51.2991 199.872 52.0351 199.872C52.4511 199.872 52.7871 199.952 53.1711 200.08V198.448C52.7391 198.32 52.2751 198.224 51.6031 198.224C50.7711 198.224 50.1471 198.448 49.6991 198.896C49.2511 199.344 49.0111 200.048 49.0111 200.976V201.6H47.9391V203.216H49.0111V210ZM54.7071 210H56.6431V201.552H54.7071V210ZM54.6271 200.256H56.7071V198.416H54.6271V200.256ZM62.3249 210.144C63.0609 210.144 63.5889 209.984 64.0689 209.712V208.128C63.6849 208.32 63.3009 208.416 62.8689 208.416C62.2129 208.416 61.8289 208.112 61.8289 207.36V203.216H64.1009V201.552H61.8289V199.232H59.8929V201.552H58.8209V203.216H59.8929V207.664C59.8929 209.52 60.9009 210.144 62.3249 210.144Z" fill="#1CB7ED"/>
<path d="M186.205 12.6353C153.017 12.6353 113.926 31.114 89.6587 61.4521C65.3909 91.7901 58.3908 125.162 60.5851 161.016M186.205 12.6353L177.428 6.01611M186.205 12.6353L177.428 20.0819" stroke="#D2F1FB" stroke-width="3" stroke-linecap="round" stroke-linejoin="round" stroke-dasharray="11.5 11.5"/>
</svg>
