<svg width="251" height="250" viewBox="0 0 251 250" fill="none" xmlns="http://www.w3.org/2000/svg">
<path d="M8.60563 84.106H14.3356V62.956H10.1056L3.95563 64.696L5.06563 69.196L8.60563 68.386V84.106ZM27.8919 84.526C33.8919 84.526 37.6419 79.546 37.6419 73.606V73.546C37.6419 67.606 33.9219 62.686 27.9519 62.686C21.9819 62.686 18.2019 67.666 18.2019 73.606V73.666C18.2019 79.606 21.8919 84.526 27.8919 84.526ZM27.9519 79.366C25.6119 79.366 24.0519 76.966 24.0519 73.606V73.546C24.0519 70.186 25.5819 67.846 27.8919 67.846C30.2019 67.846 31.7919 70.276 31.7919 73.606V73.666C31.7919 76.996 30.2919 79.366 27.9519 79.366ZM50.4059 84.526C56.4059 84.526 60.1559 79.546 60.1559 73.606V73.546C60.1559 67.606 56.4359 62.686 50.4659 62.686C44.4959 62.686 40.7159 67.666 40.7159 73.606V73.666C40.7159 79.606 44.4059 84.526 50.4059 84.526ZM50.4659 79.366C48.1259 79.366 46.5659 76.966 46.5659 73.606V73.546C46.5659 70.186 48.0959 67.846 50.4059 67.846C52.7159 67.846 54.3059 70.276 54.3059 73.606V73.666C54.3059 76.996 52.8059 79.366 50.4659 79.366Z" fill="#1CB7ED"/>
<path d="M3.912 102.106H5.364V98.53C5.364 97.558 5.916 96.958 6.72 96.958C7.524 96.958 8.004 97.51 8.004 98.494V102.106H9.456V98.53C9.456 97.51 10.02 96.958 10.812 96.958C11.628 96.958 12.096 97.498 12.096 98.506V102.106H13.548V98.062C13.548 96.514 12.708 95.638 11.328 95.638C10.368 95.638 9.696 96.082 9.192 96.754C8.856 96.082 8.208 95.638 7.296 95.638C6.324 95.638 5.772 96.166 5.364 96.73V95.77H3.912V102.106ZM15.5783 94.798H17.1383V93.418H15.5783V94.798ZM15.6383 102.106H17.0903V95.77H15.6383V102.106ZM19.3119 102.106H20.7639V93.346H19.3119V102.106ZM22.9855 102.106H24.4375V93.346H22.9855V102.106ZM26.5991 94.798H28.1591V93.418H26.5991V94.798ZM26.6591 102.106H28.1111V95.77H26.6591V102.106ZM33.2607 102.25C35.2167 102.25 36.6567 100.75 36.6567 98.95V98.926C36.6567 97.114 35.2287 95.638 33.2847 95.638C31.3407 95.638 29.9007 97.138 29.9007 98.95V98.974C29.9007 100.774 31.3287 102.25 33.2607 102.25ZM33.2847 100.978C32.1567 100.978 31.3527 100.054 31.3527 98.95V98.926C31.3527 97.822 32.0967 96.91 33.2607 96.91C34.4007 96.91 35.2047 97.834 35.2047 98.95V98.974C35.2047 100.066 34.4607 100.978 33.2847 100.978ZM38.3754 102.106H39.8274V98.53C39.8274 97.546 40.4154 96.958 41.2554 96.958C42.1194 96.958 42.6114 97.522 42.6114 98.506V102.106H44.0634V98.062C44.0634 96.598 43.2354 95.638 41.8074 95.638C40.8234 95.638 40.2354 96.154 39.8274 96.742V95.77H38.3754V102.106ZM50.0625 102.106H53.1945C55.8345 102.106 57.6585 100.27 57.6585 97.906V97.882C57.6585 95.518 55.8345 93.706 53.1945 93.706H50.0625V102.106ZM53.1945 95.05C54.9585 95.05 56.1105 96.262 56.1105 97.906V97.93C56.1105 99.574 54.9585 100.762 53.1945 100.762H51.5385V95.05H53.1945ZM63.6732 102.25C65.1612 102.25 66.3492 101.65 67.1772 100.942V97.414H63.6012V98.698H65.7492V100.27C65.2332 100.654 64.5132 100.906 63.7212 100.906C62.0052 100.906 60.8652 99.634 60.8652 97.906V97.882C60.8652 96.274 62.0412 94.918 63.5892 94.918C64.6572 94.918 65.2932 95.266 65.9412 95.818L66.8772 94.702C66.0132 93.97 65.1132 93.562 63.6492 93.562C61.1172 93.562 59.3172 95.554 59.3172 97.906V97.93C59.3172 100.378 61.0452 102.25 63.6732 102.25ZM71.251 102.106H72.739V95.074H75.403V93.706H68.587V95.074H71.251V102.106ZM82.6203 93.706L80.5203 96.754L78.4323 93.706H76.6923L79.6083 97.834L76.5723 102.106H78.2643L80.4723 98.902L82.6923 102.106H84.4323L81.3843 97.81L84.3123 93.706H82.6203ZM6.036 116.214C6.588 116.214 6.984 116.094 7.344 115.89V114.702C7.056 114.846 6.768 114.918 6.444 114.918C5.952 114.918 5.664 114.69 5.664 114.126V111.018H7.368V109.77H5.664V108.03H4.212V109.77H3.408V111.018H4.212V114.354C4.212 115.746 4.968 116.214 6.036 116.214ZM11.9218 116.25C13.8778 116.25 15.3178 114.75 15.3178 112.95V112.926C15.3178 111.114 13.8898 109.638 11.9458 109.638C10.0018 109.638 8.56181 111.138 8.56181 112.95V112.974C8.56181 114.774 9.98981 116.25 11.9218 116.25ZM11.9458 114.978C10.8178 114.978 10.0138 114.054 10.0138 112.95V112.926C10.0138 111.822 10.7578 110.91 11.9218 110.91C13.0618 110.91 13.8658 111.834 13.8658 112.95V112.974C13.8658 114.066 13.1218 114.978 11.9458 114.978ZM17.0365 116.106H18.4885V114.294L19.3885 113.358L21.2605 116.106H22.9645L20.3605 112.35L22.8805 109.77H21.1165L18.4885 112.578V107.346H17.0365V116.106ZM26.8602 116.25C28.0242 116.25 28.8522 115.782 29.4522 115.062L28.6002 114.306C28.0962 114.798 27.5922 115.062 26.8842 115.062C25.9482 115.062 25.2162 114.486 25.0602 113.454H29.7162C29.7282 113.31 29.7402 113.178 29.7402 113.046C29.7402 111.222 28.7202 109.638 26.7042 109.638C24.8922 109.638 23.6082 111.126 23.6082 112.938V112.962C23.6082 114.918 25.0242 116.25 26.8602 116.25ZM25.0482 112.494C25.1802 111.51 25.8042 110.826 26.6922 110.826C27.6522 110.826 28.2042 111.558 28.3002 112.494H25.0482ZM31.4384 116.106H32.8904V112.53C32.8904 111.546 33.4784 110.958 34.3184 110.958C35.1824 110.958 35.6744 111.522 35.6744 112.506V116.106H37.1264V112.062C37.1264 110.598 36.2984 109.638 34.8704 109.638C33.8864 109.638 33.2984 110.154 32.8904 110.742V109.77H31.4384V116.106ZM41.2918 116.226C42.6118 116.226 43.6438 115.566 43.6438 114.234V114.21C43.6438 113.07 42.5998 112.65 41.6758 112.362C40.9318 112.122 40.2478 111.93 40.2478 111.462V111.438C40.2478 111.078 40.5718 110.814 41.1358 110.814C41.6638 110.814 42.3118 111.042 42.9238 111.414L43.4998 110.382C42.8278 109.938 41.9638 109.662 41.1718 109.662C39.9118 109.662 38.9158 110.394 38.9158 111.594V111.618C38.9158 112.83 39.9598 113.214 40.8958 113.478C41.6398 113.706 42.3118 113.874 42.3118 114.366V114.39C42.3118 114.81 41.9518 115.074 41.3278 115.074C40.6798 115.074 39.9478 114.81 39.2518 114.294L38.6038 115.278C39.3958 115.902 40.3918 116.226 41.2918 116.226Z" fill="#1CB7ED"/>
<path fill-rule="evenodd" clip-rule="evenodd" d="M127.183 0.0128555C98.9571 -0.391842 71.4257 8.76906 49.0698 26.0044L125.391 125L0.390625 125.033C0.398072 153.261 9.95996 180.656 27.5198 202.758C45.0797 224.86 69.6035 240.367 97.0994 246.756C124.595 253.145 153.444 250.039 178.95 237.944C204.456 225.849 225.117 205.477 237.57 180.144C250.023 154.81 253.534 126.008 247.533 98.4251C241.532 70.842 226.371 46.1023 204.518 28.2332C182.666 10.364 155.408 0.417553 127.183 0.0128555ZM185.024 125.106V138.963C185.024 138.963 194.835 140.462 194.835 149.638C194.835 159.752 185.024 161.248 185.024 161.248V175.106C185.024 175.106 207.665 172.484 207.665 150.012C207.665 127.54 185.024 125.106 185.024 125.106ZM180.119 125.106V138.777H173.892V161.436H180.119V174.919C180.119 174.919 157.665 172.672 157.665 150.013C157.665 127.354 180.119 125.106 180.119 125.106ZM196.249 93.7072V89.8271C196.249 89.8271 202.589 90.5087 202.589 96.8008C202.589 103.093 196.249 103.827 196.249 103.827V99.9469C196.249 99.9469 198.996 99.5279 198.996 96.696C198.996 94.1267 196.249 93.7072 196.249 93.7072ZM194.876 93.655V89.8273C194.876 89.8273 188.589 90.4565 188.589 96.8011C188.589 103.146 194.876 103.775 194.876 103.775V99.9996H193.132V93.655H194.876ZM192.106 198.712V202.038C192.106 202.038 194.461 202.398 194.461 204.6C194.461 207.027 192.106 207.386 192.106 207.386V210.712C192.106 210.712 197.54 210.083 197.54 204.69C197.54 199.296 192.106 198.712 192.106 198.712ZM190.929 198.712V201.993H189.434V207.431H190.929V210.667C190.929 210.667 185.54 210.128 185.54 204.69C185.54 199.252 190.929 198.712 190.929 198.712ZM133.744 187.229V183.904C133.744 183.904 139.178 184.488 139.178 189.881C139.178 195.274 133.744 195.904 133.744 195.904V192.578C133.744 192.578 136.098 192.219 136.098 189.791C136.098 187.589 133.744 187.229 133.744 187.229ZM132.566 187.185V183.904C132.566 183.904 127.178 184.443 127.178 189.881C127.178 195.32 132.566 195.859 132.566 195.859V192.623H131.072V187.185H132.566ZM120.317 145.141V147.328H119.321V150.953H120.317V153.111C120.317 153.111 116.725 152.751 116.725 149.126C116.725 145.5 120.317 145.141 120.317 145.141ZM121.102 145.141V147.358C121.102 147.358 122.672 147.598 122.672 149.066C122.672 150.684 121.102 150.923 121.102 150.923V153.141C121.102 153.141 124.725 152.721 124.725 149.126C124.725 145.53 121.102 145.141 121.102 145.141ZM160.736 105.546V103.329C160.736 103.329 164.359 103.718 164.359 107.314C164.359 110.909 160.736 111.329 160.736 111.329V109.111C160.736 109.111 162.306 108.872 162.306 107.254C162.306 105.786 160.736 105.546 160.736 105.546ZM159.951 105.516V103.329C159.951 103.329 156.359 103.688 156.359 107.314C156.359 110.939 159.951 111.299 159.951 111.299V109.142H158.955V105.516H159.951ZM229.715 112.603V113.97H229.092V116.236H229.715V117.584C229.715 117.584 227.469 117.36 227.469 115.094C227.469 112.828 229.715 112.603 229.715 112.603ZM230.205 112.603V113.989C230.205 113.989 231.186 114.139 231.186 115.056C231.186 116.068 230.205 116.217 230.205 116.217V117.603C230.205 117.603 232.469 117.341 232.469 115.094C232.469 112.846 230.205 112.603 230.205 112.603ZM229.715 154.783V153.416C229.715 153.416 227.469 153.641 227.469 155.906C227.469 158.172 229.715 158.397 229.715 158.397V157.049H229.092V154.783H229.715ZM230.205 154.802V153.416C230.205 153.416 232.469 153.659 232.469 155.906C232.469 158.154 230.205 158.416 230.205 158.416V157.03C230.205 157.03 231.186 156.88 231.186 155.869C231.186 154.951 230.205 154.802 230.205 154.802ZM151.2 212.214V213.581H150.577V215.847H151.2V217.195C151.2 217.195 148.955 216.97 148.955 214.704C148.955 212.438 151.2 212.214 151.2 212.214ZM151.69 212.214V213.6C151.69 213.6 152.671 213.749 152.671 214.667C152.671 215.678 151.69 215.828 151.69 215.828V217.214C151.69 217.214 153.954 216.952 153.954 214.704C153.954 212.457 151.69 212.214 151.69 212.214Z" fill="#1CB7ED" fill-opacity="0.1"/>
</svg>
