<svg width="250" height="250" viewBox="0 0 250 250" fill="none" xmlns="http://www.w3.org/2000/svg">
<circle cx="125" cy="125" r="125" fill="#1CB7ED" fill-opacity="0.05"/>
<circle cx="125" cy="125" r="93.0851" fill="#1CB7ED" fill-opacity="0.05"/>
<path fill-rule="evenodd" clip-rule="evenodd" d="M120.925 106.873V85C120.925 85 85 88.5955 85 124.85C85 161.105 120.925 164.7 120.925 164.7V143.127H110.962V106.873H120.925ZM128.774 107.172V85C128.774 85 165 88.8951 165 124.85C165 160.805 128.774 165 128.774 165V142.828C128.774 142.828 144.472 140.433 144.472 124.251C144.472 109.569 128.774 107.172 128.774 107.172Z" fill="#1CB7ED"/>
<path fill-rule="evenodd" clip-rule="evenodd" d="M60.8662 58.0437C60.0887 58.7947 59.3243 59.5592 58.5732 60.3367C58.8922 59.9029 59.2465 59.4902 59.6345 59.1023C60.0214 58.7153 60.4331 58.3619 60.8662 58.0437ZM126.27 78.1013H124.263V76.145H126.27V78.1013ZM91.6186 89.6674L90.1996 91.0864L91.5828 92.4695L93.0017 91.0506L91.6186 89.6674ZM158.915 89.6674L157.531 91.0506L158.95 92.4695L160.334 91.0864L158.915 89.6674ZM78.6342 125.738H76.6779V123.731H78.6342V125.738ZM173.856 125.738H171.899V123.731H173.856V125.738ZM158.95 157L157.532 158.418L158.915 159.801L160.334 158.382L158.95 157ZM91.5828 157L90.1996 158.382L91.6186 159.801L93.0017 158.418L91.5828 157ZM126.27 173.324H124.263V171.367H126.27V173.324Z" fill="#D2F1FB"/>
<circle cx="126" cy="43" r="9.5" stroke="#1CB7ED" stroke-width="3"/>
<circle cx="126" cy="43" r="5" stroke="#1CB7ED" stroke-width="2"/>
<circle cx="156.628" cy="48.6492" r="3.5" stroke="#1CB7ED" stroke-width="2"/>
<circle cx="201.309" cy="92.7981" r="3.5" stroke="#1CB7ED" stroke-width="2"/>
<circle cx="201.309" cy="156.628" r="3.5" stroke="#1CB7ED" stroke-width="2"/>
<circle cx="49.1807" cy="92.7981" r="3.5" stroke="#1CB7ED" stroke-width="2"/>
<circle cx="49.1807" cy="156.628" r="3.5" stroke="#1CB7ED" stroke-width="2"/>
<circle cx="93.3301" cy="48.6492" r="3.5" stroke="#1CB7ED" stroke-width="2"/>
<circle cx="156.628" cy="200.777" r="3.5" stroke="#1CB7ED" stroke-width="2"/>
<circle cx="93.3301" cy="200.777" r="3.5" stroke="#1CB7ED" stroke-width="2"/>
<circle cx="184" cy="67" r="9.5" stroke="#1CB7ED" stroke-width="3"/>
<path d="M189 66.5C189 68.9052 186.845 71 184 71C181.155 71 179 68.9052 179 66.5C179 64.0948 181.155 62 184 62C186.845 62 189 64.0948 189 66.5Z" stroke="#1CB7ED" stroke-width="2"/>
<circle cx="208" cy="125" r="9.5" stroke="#1CB7ED" stroke-width="3"/>
<circle cx="208" cy="125" r="5" stroke="#1CB7ED" stroke-width="2"/>
<circle cx="184" cy="183" r="9.5" stroke="#1CB7ED" stroke-width="3"/>
<circle cx="184" cy="183" r="5" stroke="#1CB7ED" stroke-width="2"/>
<circle cx="126" cy="207" r="9.5" stroke="#1CB7ED" stroke-width="3"/>
<circle cx="126" cy="207" r="5" stroke="#1CB7ED" stroke-width="2"/>
<circle cx="67" cy="183" r="9.5" stroke="#1CB7ED" stroke-width="3"/>
<circle cx="67" cy="183" r="5" stroke="#1CB7ED" stroke-width="2"/>
<circle cx="43" cy="125" r="9.5" stroke="#1CB7ED" stroke-width="3"/>
<circle cx="43" cy="125" r="5" stroke="#1CB7ED" stroke-width="2"/>
<circle cx="67" cy="67" r="9.5" stroke="#1CB7ED" stroke-width="3"/>
<circle cx="67" cy="67" r="5" stroke="#1CB7ED" stroke-width="2"/>
<path d="M121.859 236.77C123.109 236.77 124.309 235.78 124.309 234.03V234.01C124.309 232.25 123.099 231.27 121.859 231.27C120.999 231.27 120.449 231.71 120.059 232.26V229.36H118.849V236.66H120.059V235.84C120.429 236.33 120.979 236.77 121.859 236.77ZM121.569 235.72C120.749 235.72 120.029 235.04 120.029 234.03V234.01C120.029 233 120.749 232.32 121.569 232.32C122.389 232.32 123.079 232.99 123.079 234.01V234.03C123.079 235.07 122.399 235.72 121.569 235.72ZM128.268 236.78C129.898 236.78 131.098 235.53 131.098 234.03V234.01C131.098 232.5 129.908 231.27 128.288 231.27C126.668 231.27 125.468 232.52 125.468 234.03V234.05C125.468 235.55 126.658 236.78 128.268 236.78ZM128.288 235.72C127.348 235.72 126.678 234.95 126.678 234.03V234.01C126.678 233.09 127.298 232.33 128.268 232.33C129.218 232.33 129.888 233.1 129.888 234.03V234.05C129.888 234.96 129.268 235.72 128.288 235.72ZM134.3 236.75C134.76 236.75 135.09 236.65 135.39 236.48V235.49C135.15 235.61 134.91 235.67 134.64 235.67C134.23 235.67 133.99 235.48 133.99 235.01V232.42H135.41V231.38H133.99V229.93H132.78V231.38H132.11V232.42H132.78V235.2C132.78 236.36 133.41 236.75 134.3 236.75Z" fill="#1CB7ED"/>
<path d="M121.859 18.6845C123.109 18.6845 124.309 17.6945 124.309 15.9445V15.9245C124.309 14.1645 123.099 13.1845 121.859 13.1845C120.999 13.1845 120.449 13.6245 120.059 14.1745V11.2745H118.849V18.5745H120.059V17.7545C120.429 18.2445 120.979 18.6845 121.859 18.6845ZM121.569 17.6345C120.749 17.6345 120.029 16.9545 120.029 15.9445V15.9245C120.029 14.9145 120.749 14.2345 121.569 14.2345C122.389 14.2345 123.079 14.9045 123.079 15.9245V15.9445C123.079 16.9845 122.399 17.6345 121.569 17.6345ZM128.268 18.6945C129.898 18.6945 131.098 17.4445 131.098 15.9445V15.9245C131.098 14.4145 129.908 13.1845 128.288 13.1845C126.668 13.1845 125.468 14.4345 125.468 15.9445V15.9645C125.468 17.4645 126.658 18.6945 128.268 18.6945ZM128.288 17.6345C127.348 17.6345 126.678 16.8645 126.678 15.9445V15.9245C126.678 15.0045 127.298 14.2445 128.268 14.2445C129.218 14.2445 129.888 15.0145 129.888 15.9445V15.9645C129.888 16.8745 129.268 17.6345 128.288 17.6345ZM134.3 18.6645C134.76 18.6645 135.09 18.5645 135.39 18.3945V17.4045C135.15 17.5245 134.91 17.5845 134.64 17.5845C134.23 17.5845 133.99 17.3945 133.99 16.9245V14.3345H135.41V13.2945H133.99V11.8445H132.78V13.2945H132.11V14.3345H132.78V17.1145C132.78 18.2745 133.41 18.6645 134.3 18.6645Z" fill="#1CB7ED"/>
<path d="M198.454 202.727C199.704 202.727 200.904 201.737 200.904 199.987V199.967C200.904 198.207 199.694 197.227 198.454 197.227C197.594 197.227 197.044 197.667 196.654 198.217V195.317H195.444V202.617H196.654V201.797C197.024 202.287 197.574 202.727 198.454 202.727ZM198.164 201.677C197.344 201.677 196.624 200.997 196.624 199.987V199.967C196.624 198.957 197.344 198.277 198.164 198.277C198.984 198.277 199.674 198.947 199.674 199.967V199.987C199.674 201.027 198.994 201.677 198.164 201.677ZM204.863 202.737C206.493 202.737 207.693 201.487 207.693 199.987V199.967C207.693 198.457 206.503 197.227 204.883 197.227C203.263 197.227 202.063 198.477 202.063 199.987V200.007C202.063 201.507 203.253 202.737 204.863 202.737ZM204.883 201.677C203.943 201.677 203.273 200.907 203.273 199.987V199.967C203.273 199.047 203.893 198.287 204.863 198.287C205.813 198.287 206.483 199.057 206.483 199.987V200.007C206.483 200.917 205.863 201.677 204.883 201.677ZM210.896 202.707C211.356 202.707 211.686 202.607 211.986 202.437V201.447C211.746 201.567 211.506 201.627 211.236 201.627C210.826 201.627 210.586 201.437 210.586 200.967V198.377H212.006V197.337H210.586V195.887H209.376V197.337H208.706V198.377H209.376V201.157C209.376 202.317 210.006 202.707 210.896 202.707Z" fill="#1CB7ED"/>
<path d="M45.263 202.727C46.513 202.727 47.713 201.737 47.713 199.987V199.967C47.713 198.207 46.503 197.227 45.263 197.227C44.403 197.227 43.853 197.667 43.463 198.217V195.317H42.253V202.617H43.463V201.797C43.833 202.287 44.383 202.727 45.263 202.727ZM44.973 201.677C44.153 201.677 43.433 200.997 43.433 199.987V199.967C43.433 198.957 44.153 198.277 44.973 198.277C45.793 198.277 46.483 198.947 46.483 199.967V199.987C46.483 201.027 45.803 201.677 44.973 201.677ZM51.672 202.737C53.302 202.737 54.502 201.487 54.502 199.987V199.967C54.502 198.457 53.312 197.227 51.692 197.227C50.072 197.227 48.872 198.477 48.872 199.987V200.007C48.872 201.507 50.062 202.737 51.672 202.737ZM51.692 201.677C50.752 201.677 50.082 200.907 50.082 199.987V199.967C50.082 199.047 50.702 198.287 51.672 198.287C52.622 198.287 53.292 199.057 53.292 199.987V200.007C53.292 200.917 52.672 201.677 51.692 201.677ZM57.7042 202.707C58.1642 202.707 58.4942 202.607 58.7942 202.437V201.447C58.5542 201.567 58.3142 201.627 58.0442 201.627C57.6342 201.627 57.3942 201.437 57.3942 200.967V198.377H58.8142V197.337H57.3942V195.887H56.1842V197.337H55.5142V198.377H56.1842V201.157C56.1842 202.317 56.8142 202.707 57.7042 202.707Z" fill="#1CB7ED"/>
<path d="M198.454 52.1952C199.704 52.1952 200.904 51.2052 200.904 49.4552V49.4352C200.904 47.6752 199.694 46.6952 198.454 46.6952C197.594 46.6952 197.044 47.1352 196.654 47.6852V44.7852H195.444V52.0852H196.654V51.2652C197.024 51.7552 197.574 52.1952 198.454 52.1952ZM198.164 51.1452C197.344 51.1452 196.624 50.4652 196.624 49.4552V49.4352C196.624 48.4252 197.344 47.7452 198.164 47.7452C198.984 47.7452 199.674 48.4152 199.674 49.4352V49.4552C199.674 50.4952 198.994 51.1452 198.164 51.1452ZM204.863 52.2052C206.493 52.2052 207.693 50.9552 207.693 49.4552V49.4352C207.693 47.9252 206.503 46.6952 204.883 46.6952C203.263 46.6952 202.063 47.9452 202.063 49.4552V49.4752C202.063 50.9752 203.253 52.2052 204.863 52.2052ZM204.883 51.1452C203.943 51.1452 203.273 50.3752 203.273 49.4552V49.4352C203.273 48.5152 203.893 47.7552 204.863 47.7552C205.813 47.7552 206.483 48.5252 206.483 49.4552V49.4752C206.483 50.3852 205.863 51.1452 204.883 51.1452ZM210.896 52.1752C211.356 52.1752 211.686 52.0752 211.986 51.9052V50.9152C211.746 51.0352 211.506 51.0952 211.236 51.0952C210.826 51.0952 210.586 50.9052 210.586 50.4352V47.8452H212.006V46.8052H210.586V45.3552H209.376V46.8052H208.706V47.8452H209.376V50.6252C209.376 51.7852 210.006 52.1752 210.896 52.1752Z" fill="#1CB7ED"/>
<path d="M46.2667 52.1952C47.5167 52.1952 48.7167 51.2052 48.7167 49.4552V49.4352C48.7167 47.6752 47.5067 46.6952 46.2667 46.6952C45.4067 46.6952 44.8567 47.1352 44.4667 47.6852V44.7852H43.2567V52.0852H44.4667V51.2652C44.8367 51.7552 45.3867 52.1952 46.2667 52.1952ZM45.9767 51.1452C45.1567 51.1452 44.4367 50.4652 44.4367 49.4552V49.4352C44.4367 48.4252 45.1567 47.7452 45.9767 47.7452C46.7967 47.7452 47.4867 48.4152 47.4867 49.4352V49.4552C47.4867 50.4952 46.8067 51.1452 45.9767 51.1452ZM52.6757 52.2052C54.3057 52.2052 55.5057 50.9552 55.5057 49.4552V49.4352C55.5057 47.9252 54.3157 46.6952 52.6957 46.6952C51.0757 46.6952 49.8757 47.9452 49.8757 49.4552V49.4752C49.8757 50.9752 51.0657 52.2052 52.6757 52.2052ZM52.6957 51.1452C51.7557 51.1452 51.0857 50.3752 51.0857 49.4552V49.4352C51.0857 48.5152 51.7057 47.7552 52.6757 47.7552C53.6257 47.7552 54.2957 48.5252 54.2957 49.4552V49.4752C54.2957 50.3852 53.6757 51.1452 52.6957 51.1452ZM58.7079 52.1752C59.1679 52.1752 59.4979 52.0752 59.7979 51.9052V50.9152C59.5579 51.0352 59.3179 51.0952 59.0479 51.0952C58.6379 51.0952 58.3979 50.9052 58.3979 50.4352V47.8452H59.8179V46.8052H58.3979V45.3552H57.1879V46.8052H56.5179V47.8452H57.1879V50.6252C57.1879 51.7852 57.8179 52.1752 58.7079 52.1752Z" fill="#1CB7ED"/>
<path d="M230.369 127.727C231.619 127.727 232.819 126.737 232.819 124.987V124.967C232.819 123.207 231.609 122.227 230.369 122.227C229.509 122.227 228.959 122.667 228.569 123.217V120.317H227.359V127.617H228.569V126.797C228.939 127.287 229.489 127.727 230.369 127.727ZM230.079 126.677C229.259 126.677 228.539 125.997 228.539 124.987V124.967C228.539 123.957 229.259 123.277 230.079 123.277C230.899 123.277 231.589 123.947 231.589 124.967V124.987C231.589 126.027 230.909 126.677 230.079 126.677ZM236.778 127.737C238.408 127.737 239.608 126.487 239.608 124.987V124.967C239.608 123.457 238.418 122.227 236.798 122.227C235.178 122.227 233.978 123.477 233.978 124.987V125.007C233.978 126.507 235.168 127.737 236.778 127.737ZM236.798 126.677C235.858 126.677 235.188 125.907 235.188 124.987V124.967C235.188 124.047 235.808 123.287 236.778 123.287C237.728 123.287 238.398 124.057 238.398 124.987V125.007C238.398 125.917 237.778 126.677 236.798 126.677ZM242.811 127.707C243.271 127.707 243.601 127.607 243.901 127.437V126.447C243.661 126.567 243.421 126.627 243.151 126.627C242.741 126.627 242.501 126.437 242.501 125.967V123.377H243.921V122.337H242.501V120.887H241.291V122.337H240.621V123.377H241.291V126.157C241.291 127.317 241.921 127.707 242.811 127.707Z" fill="#1CB7ED"/>
<path d="M12.2845 127.727C13.5345 127.727 14.7345 126.737 14.7345 124.987V124.967C14.7345 123.207 13.5245 122.227 12.2845 122.227C11.4245 122.227 10.8745 122.667 10.4845 123.217V120.317H9.27445V127.617H10.4845V126.797C10.8545 127.287 11.4045 127.727 12.2845 127.727ZM11.9945 126.677C11.1745 126.677 10.4545 125.997 10.4545 124.987V124.967C10.4545 123.957 11.1745 123.277 11.9945 123.277C12.8145 123.277 13.5045 123.947 13.5045 124.967V124.987C13.5045 126.027 12.8245 126.677 11.9945 126.677ZM18.6934 127.737C20.3234 127.737 21.5234 126.487 21.5234 124.987V124.967C21.5234 123.457 20.3334 122.227 18.7134 122.227C17.0934 122.227 15.8934 123.477 15.8934 124.987V125.007C15.8934 126.507 17.0834 127.737 18.6934 127.737ZM18.7134 126.677C17.7734 126.677 17.1034 125.907 17.1034 124.987V124.967C17.1034 124.047 17.7234 123.287 18.6934 123.287C19.6434 123.287 20.3134 124.057 20.3134 124.987V125.007C20.3134 125.917 19.6934 126.677 18.7134 126.677ZM24.7257 127.707C25.1857 127.707 25.5157 127.607 25.8157 127.437V126.447C25.5757 126.567 25.3357 126.627 25.0657 126.627C24.6557 126.627 24.4157 126.437 24.4157 125.967V123.377H25.8357V122.337H24.4157V120.887H23.2057V122.337H22.5357V123.377H23.2057V126.157C23.2057 127.317 23.8357 127.707 24.7257 127.707Z" fill="#1CB7ED"/>
</svg>
