<svg width="24" height="24" viewBox="0 0 24 24" fill="none" xmlns="http://www.w3.org/2000/svg">
<path d="M6.19475 9.98459H8.68687V18H6.19475V9.98459ZM7.44358 6C7.72909 6 8.0082 6.0848 8.24559 6.24368C8.48299 6.40256 8.66802 6.62838 8.77728 6.89259C8.88654 7.1568 8.91512 7.44752 8.85942 7.72801C8.80371 8.00849 8.66624 8.26613 8.46435 8.46834C8.26246 8.67056 8.00523 8.80826 7.72521 8.86405C7.44518 8.91984 7.15492 8.8912 6.89114 8.78176C6.62736 8.67233 6.40191 8.487 6.24329 8.24922C6.08466 8.01144 6 7.73189 6 7.44591C6.00049 7.06242 6.15286 6.69479 6.42368 6.42371C6.6945 6.15263 7.06071 6.00024 7.44358 6Z" fill="white"/>
<path d="M10.2479 9.98364H12.6302V11.0838H12.6625C12.9013 10.6748 13.2464 10.3384 13.6611 10.1104C14.0757 9.88248 14.5444 9.77155 15.0171 9.78947C17.5332 9.78947 18.0003 11.448 18.0003 13.6077V18H15.5165V14.1032C15.5165 13.1722 15.5026 11.9768 14.2242 11.9768C12.932 11.9768 12.7345 12.9938 12.7345 14.0339V18H10.2507L10.2461 9.98454L10.2479 9.98364Z" fill="white"/>
</svg>
