<svg width="24" height="24" viewBox="0 0 24 24" fill="none" xmlns="http://www.w3.org/2000/svg">
<path d="M18.3396 6.07747L5.66786 10.9668C4.80231 11.3137 4.80875 11.797 5.50999 12.0117L8.6715 12.9986L9.88068 16.7067C10.0278 17.1127 9.95478 17.2738 10.3811 17.2738C10.5086 17.2725 10.6341 17.2422 10.7481 17.1853C10.8622 17.1283 10.9618 17.0462 11.0394 16.9451L12.6202 15.4073L15.9084 17.8365C16.513 18.1704 16.95 17.9975 17.1015 17.2748L19.26 7.10303C19.4769 6.2203 18.9185 5.81866 18.3396 6.07747ZM9.16333 12.771L16.2896 8.27571C16.6451 8.06093 16.9715 8.17583 16.7041 8.41316L10.6023 13.9179L10.365 16.4522L9.16441 12.771H9.16333Z" fill="white"/>
</svg>
