<svg width="24" height="24" viewBox="0 0 24 24" fill="none" xmlns="http://www.w3.org/2000/svg">
<path d="M19.7692 7.47169C19.208 7.70834 18.6147 7.86103 18.0086 7.92481C18.637 7.53596 19.1013 6.93196 19.3145 6.22618C18.7212 6.58708 18.0665 6.83649 17.3828 6.96202C16.7999 6.36417 16.0045 6.01864 15.1682 6C14.3715 6.00548 13.6089 6.3233 13.0455 6.88471C12.4821 7.44612 12.1631 8.20598 12.1576 8.99992C12.1483 9.22782 12.1673 9.456 12.2144 9.67922C11.0223 9.64204 9.85229 9.34954 8.7838 8.8216C7.71531 8.29366 6.77343 7.54266 6.02219 6.61966C5.76975 7.09163 5.63259 7.61628 5.62186 8.15099C5.60929 8.64924 5.72905 9.14195 5.96902 9.57925C6.20899 10.0166 6.56065 10.3829 6.9884 10.6412C6.49019 10.6235 6.00338 10.4878 5.56823 10.2454V10.302C5.56447 11.0001 5.80699 11.6773 6.25342 12.2153C6.69984 12.7533 7.32179 13.1179 8.01059 13.2454C7.75103 13.3147 7.48404 13.3526 7.21538 13.3584C7.02421 13.3677 6.83271 13.3487 6.64716 13.3019C6.83794 13.9049 7.21563 14.4322 7.72596 14.8079C8.23628 15.1837 8.853 15.3886 9.48751 15.3932C8.41811 16.2314 7.09898 16.6906 5.73846 16.6984C5.49092 16.7075 5.24314 16.6883 5 16.6411C6.39331 17.5218 8.00778 17.9927 9.65775 17.9997C10.7896 18.0095 11.9121 17.7956 12.9604 17.3703C14.0087 16.945 14.9619 16.3167 15.7649 15.5219C16.5679 14.727 17.2048 13.7814 17.6386 12.7397C18.0724 11.698 18.2946 10.5809 18.2923 9.45304V9.05646C18.8694 8.61351 19.3686 8.07794 19.7692 7.47169Z" fill="white"/>
</svg>
