<svg width="24" height="24" viewBox="0 0 24 24" fill="none" xmlns="http://www.w3.org/2000/svg">
<mask id="mask0" mask-type="alpha" maskUnits="userSpaceOnUse" x="0" y="0" width="24" height="24">
<rect width="24" height="24" fill="#C4C4C4"/>
</mask>
<g mask="url(#mask0)">
<path d="M19.6661 7.87452C19.575 7.51154 19.3964 7.18052 19.1482 6.91459C18.9 6.64866 18.5909 6.45716 18.2518 6.35924C17.0036 6 12 6 12 6C12 6 6.99643 6 5.74821 6.35732C5.40897 6.45493 5.09969 6.64633 4.85144 6.91231C4.60319 7.17828 4.42471 7.50947 4.33393 7.87261C4 9.21019 4 12 4 12C4 12 4 14.7898 4.33393 16.1255C4.51786 16.8631 5.06071 17.4439 5.74821 17.6408C6.99643 18 12 18 12 18C12 18 17.0036 18 18.2518 17.6408C18.9411 17.4439 19.4821 16.8631 19.6661 16.1255C20 14.7898 20 12 20 12C20 12 20 9.21019 19.6661 7.87452ZM10.4107 14.5605V9.43949L14.5536 11.9809L10.4107 14.5605Z" fill="white"/>
</g>
</svg>
