<svg width="24" height="24" viewBox="0 0 24 24" fill="none" xmlns="http://www.w3.org/2000/svg">
<path d="M15.5081 9.56452H13.2841V8.09987C13.2734 8.01652 13.2811 7.93185 13.3065 7.85176C13.3319 7.77166 13.3745 7.69809 13.4313 7.63615C13.4881 7.57422 13.5577 7.52543 13.6353 7.49318C13.7129 7.46093 13.7966 7.44601 13.8806 7.44944H15.4541V5.00868H13.339C12.944 4.97733 12.5468 5.03113 12.1744 5.16644C11.8019 5.30175 11.4629 5.51541 11.1801 5.793C10.8973 6.07059 10.6773 6.40564 10.5351 6.77552C10.3929 7.1454 10.3318 7.54148 10.3558 7.93703V9.50961H9V12.0043H10.3558V19H13.2841V12.0043H15.2373L15.5081 9.56452Z" fill="white"/>
</svg>
