<svg width="24" height="24" viewBox="0 0 24 24" fill="none" xmlns="http://www.w3.org/2000/svg">
<mask id="mask0" mask-type="alpha" maskUnits="userSpaceOnUse" x="0" y="0" width="24" height="24">
<rect width="24" height="24" fill="#C4C4C4"/>
</mask>
<g mask="url(#mask0)">
<path d="M11.9981 9.66567C10.7128 9.66567 9.66383 10.7146 9.66383 12C9.66383 13.2854 10.7128 14.3343 11.9981 14.3343C13.2835 14.3343 14.3324 13.2854 14.3324 12C14.3324 10.7146 13.2835 9.66567 11.9981 9.66567ZM18.9992 12C18.9992 11.0333 19.008 10.0754 18.9537 9.11055C18.8994 7.98979 18.6437 6.99512 17.8242 6.17556C17.0029 5.35426 16.01 5.10034 14.8893 5.04605C13.9226 4.99176 12.9648 5.00052 11.9999 5.00052C11.0332 5.00052 10.0754 4.99176 9.11047 5.04605C7.98973 5.10034 6.99508 5.35601 6.17554 6.17556C5.35425 6.99687 5.10034 7.98979 5.04605 9.11055C4.99177 10.0772 5.00052 11.0351 5.00052 12C5.00052 12.9649 4.99177 13.9246 5.04605 14.8895C5.10034 16.0102 5.356 17.0049 6.17554 17.8244C6.99683 18.6457 7.98973 18.8997 9.11047 18.9539C10.0771 19.0082 11.035 18.9995 11.9999 18.9995C12.9665 18.9995 13.9244 19.0082 14.8893 18.9539C16.01 18.8997 17.0047 18.644 17.8242 17.8244C18.6455 17.0031 18.8994 16.0102 18.9537 14.8895C19.0097 13.9246 18.9992 12.9667 18.9992 12ZM11.9981 15.5917C10.0106 15.5917 8.40651 13.9876 8.40651 12C8.40651 10.0124 10.0106 8.40832 11.9981 8.40832C13.9857 8.40832 15.5897 10.0124 15.5897 12C15.5897 13.9876 13.9857 15.5917 11.9981 15.5917ZM15.7368 9.10004C15.2728 9.10004 14.898 8.72529 14.898 8.26122C14.898 7.79716 15.2728 7.42241 15.7368 7.42241C16.2009 7.42241 16.5756 7.79716 16.5756 8.26122C16.5758 8.37142 16.5542 8.48056 16.5121 8.58239C16.47 8.68422 16.4082 8.77675 16.3303 8.85467C16.2523 8.93258 16.1598 8.99437 16.058 9.03647C15.9562 9.07858 15.847 9.10018 15.7368 9.10004Z" fill="white"/>
</g>
</svg>
