<svg width="24" height="24" viewBox="0 0 24 24" fill="none" xmlns="http://www.w3.org/2000/svg">
<path d="M11.9995 0C5.37183 0 0 5.37254 0 11.9998C0 18.6278 5.37219 24.0004 11.9995 24.0004C18.6275 24.0004 24 18.6275 24 11.9998C24 5.37219 18.6271 0 11.9995 0ZM12.6037 18.3822V20.548H11.2916V18.4448C10.0839 18.4243 8.83449 18.0491 8.10536 17.5285L8.60548 16.1339C9.35514 16.6333 10.4379 17.029 11.6041 17.029C13.0825 17.029 14.0824 16.175 14.0824 14.9878C14.0824 13.8428 13.2701 13.1346 11.7294 12.5102C9.60503 11.677 8.29295 10.7192 8.29295 8.9074C8.29295 7.17908 9.52185 5.867 11.4378 5.55447V3.45168H12.7286V5.47129C13.9777 5.51271 14.8321 5.84612 15.4356 6.20078L14.9146 7.57479C14.4778 7.32491 13.6241 6.86655 12.2911 6.86655C10.6881 6.86655 10.0839 7.82468 10.0839 8.65787C10.0839 9.74094 10.8545 10.2821 12.6663 11.0321C14.8112 11.9064 15.8936 12.9891 15.8936 14.8431C15.8936 16.4875 14.7482 18.0282 12.6037 18.3822Z" fill="#EB5757"/>
</svg>
