<svg width="24" height="24" viewBox="0 0 24 24" fill="none" xmlns="http://www.w3.org/2000/svg">
<path d="M23.6579 10.3118C24.2872 9.18599 24.048 8.29374 22.94 7.63375C21.8318 6.97403 21.2683 5.99965 21.2515 4.70901C21.235 3.41996 20.5806 2.76638 19.291 2.74878C18.0012 2.73198 17.0257 2.16879 16.365 1.06001C15.7079 -0.0479707 14.8133 -0.287433 13.6882 0.342422C12.5626 0.972277 11.4371 0.972811 10.3117 0.342422C9.1859 -0.287699 8.29311 -0.0479707 7.63419 1.06001C6.9742 2.16852 5.99956 2.73171 4.70945 2.74878C3.41934 2.76584 2.76628 3.4197 2.74842 4.70901C2.73135 5.99912 2.16869 6.97403 1.06045 7.63375C-0.048065 8.29401 -0.287794 9.18626 0.342594 10.3118C0.973516 11.4369 0.973516 12.563 0.342594 13.6886C-0.287794 14.8134 -0.048065 15.7064 1.06045 16.3659C2.16869 17.0256 2.73108 18.0002 2.74842 19.2895C2.76548 20.5796 3.41907 21.2343 4.70945 21.2514C5.99929 21.2676 6.9742 21.8308 7.63419 22.9388C8.29311 24.0473 9.1859 24.286 10.3117 23.6567C11.4371 23.0265 12.5626 23.0265 13.6882 23.6567C14.8133 24.2857 15.7074 24.0473 16.365 22.9388C17.0257 21.8308 18.0012 21.2674 19.291 21.2514C20.5806 21.2343 21.235 20.5794 21.2515 19.2895C21.2683 18.0002 21.8318 17.0256 22.94 16.3659C24.048 15.7064 24.2875 14.8134 23.6579 13.6886C23.0267 12.563 23.0267 11.4369 23.6579 10.3118ZM5.61743 8.89586C5.61743 7.64949 6.62461 6.6439 7.86859 6.6439C9.11336 6.6439 10.1219 7.64975 10.1219 8.89586C10.1219 10.1401 9.11336 11.1468 7.86859 11.1468C6.62488 11.1468 5.61743 10.1401 5.61743 8.89586ZM8.36884 18.7967C8.23551 19.0015 8.01418 19.1114 7.78752 19.1114C7.65419 19.1114 7.52353 19.0749 7.40406 18.9978C7.0838 18.7858 6.99287 18.3544 7.2046 18.0333L15.6279 5.20393C15.8383 4.87807 16.2711 4.79167 16.5924 5.0018C16.9127 5.21326 17.0039 5.64632 16.7919 5.96658L8.36884 18.7967ZM16.1284 17.3568C14.8837 17.3568 13.8746 16.3483 13.8746 15.1048C13.8746 13.859 14.8837 12.851 16.1284 12.851C17.3719 12.851 18.3823 13.859 18.3823 15.1048C18.3825 16.3483 17.3721 17.3568 16.1284 17.3568Z" fill="#EB5757"/>
</svg>
