<svg width="22" height="24" viewBox="0 0 22 24" fill="none" xmlns="http://www.w3.org/2000/svg">
<path d="M21.1365 6.17056C21.1365 5.5338 21.106 4.89703 21.106 4.32091C21.106 3.86608 20.7404 3.47189 20.2529 3.47189C16.6577 3.47189 13.8851 2.44093 11.6 0.227416C11.2649 -0.0758054 10.7469 -0.0758054 10.4118 0.227416C8.12668 2.44093 5.38457 3.47189 1.75889 3.47189C1.30188 3.47189 0.905794 3.83576 0.905794 4.32091C0.905794 4.89703 0.905794 5.5338 0.875326 6.17056C0.753455 12.2047 0.601116 20.4523 10.686 23.9394C10.7774 23.9697 10.8688 24 10.9602 24C11.0516 24 11.143 24 11.2344 23.9394C21.3802 20.4523 21.2279 12.2047 21.1365 6.17056ZM15.1038 10.2641L10.4422 14.9033C10.2899 15.055 10.0766 15.1459 9.83288 15.1459C9.6196 15.1459 9.40633 15.055 9.22352 14.9033L6.90796 12.5989C6.57282 12.2653 6.57282 11.7498 6.90796 11.4163C7.24311 11.0828 7.76106 11.0828 8.09621 11.4163L9.83288 13.1447L13.9156 9.08149C14.2507 8.74795 14.7687 8.74795 15.1038 9.08149C15.439 9.41504 15.439 9.93051 15.1038 10.2641Z" fill="#27AE60"/>
</svg>
