<svg width="24" height="24" viewBox="0 0 24 24" fill="none" xmlns="http://www.w3.org/2000/svg">
<path d="M12 0C5.37149 0 0 5.37149 0 12C0 18.6285 5.37149 24 12 24C18.6285 24 24 18.6285 24 12C24 5.37149 18.6285 0 12 0ZM10.2072 7.17802V18.1133C10.2072 18.3606 10.008 18.5529 9.7676 18.5529H8.97767C8.73039 18.5529 8.53806 18.3537 8.53806 18.1133V9.86376C8.53806 9.61648 8.33887 9.42415 8.09845 9.42415H6.68346C6.29193 9.42415 6.09273 8.9502 6.36749 8.66857L9.4585 5.57756C9.74012 5.29594 10.2141 5.49513 10.2141 5.89353V7.17802H10.2072ZM17.6394 15.3314L14.5484 18.4224C14.2667 18.7041 13.7928 18.5049 13.7928 18.1133V16.8151V5.88666C13.7928 5.63938 13.992 5.44705 14.2324 5.44705H15.0223C15.2696 5.44705 15.4619 5.64625 15.4619 5.88666V14.1362C15.4619 14.3835 15.6611 14.5758 15.9015 14.5758H17.3234C17.7218 14.5827 17.921 15.0567 17.6394 15.3314Z" fill="#27AE60"/>
</svg>
