<svg width="13" height="11" viewBox="0 0 13 11" fill="none" xmlns="http://www.w3.org/2000/svg">
<path d="M11.9501 0.319886L0.598289 4.69996C-0.177097 5.01069 -0.171328 5.4436 0.45687 5.636L3.28905 6.52009L4.37228 9.84194C4.50407 10.2056 4.43866 10.3499 4.82058 10.3499C4.93476 10.3487 5.04719 10.3216 5.14935 10.2706C5.25151 10.2196 5.34075 10.1461 5.4103 10.0555L6.82639 8.6779L9.77209 10.854C10.3137 11.1532 10.7052 10.9983 10.8409 10.3509L12.7745 1.23862C12.9689 0.447837 12.4686 0.0880401 11.9501 0.319886ZM3.72965 6.31615L10.1136 2.28914C10.432 2.09674 10.7245 2.19967 10.4849 2.41228L5.01876 7.34358L4.80615 9.61395L3.73062 6.31615H3.72965Z" fill="#1CB7ED"/>
</svg>
